<svg width="28" height="36" viewBox="0 0 28 36" fill="none" xmlns="http://www.w3.org/2000/svg">
<path d="M12.6261 0.082943C11.2167 0.400761 10.1665 0.974216 9.16469 1.98294C7.94869 3.19204 7.2716 4.64986 7.18178 6.24586L7.14033 6.95058L5.23341 6.97131C3.41632 6.99204 3.31269 6.99895 3.00869 7.15095C2.35232 7.46877 1.89632 7.98695 1.67523 8.65022C1.58541 8.89895 1.3505 11.6004 0.763229 18.9724C-0.134953 30.2481 -0.141862 30.2826 0.238138 31.3812C0.576684 32.383 0.894502 32.8873 1.66832 33.6612C2.23487 34.2277 2.46978 34.4142 2.98105 34.6768C3.3265 34.8495 3.83778 35.0706 4.12105 35.1604L4.63923 35.3193H14.0011H23.3629L23.8811 35.1604C24.1643 35.0706 24.6825 34.8495 25.0211 34.6768C25.5323 34.4142 25.7672 34.2277 26.3338 33.6612C27.1076 32.8873 27.4254 32.383 27.764 31.3812C28.1371 30.2826 28.1371 30.2481 27.2389 18.9724C26.6516 11.6073 26.4167 8.89895 26.3269 8.65022C26.1058 7.98695 25.6429 7.46877 24.9934 7.15095C24.6894 6.99895 24.5858 6.99204 22.7687 6.97131L20.8618 6.95058L20.8203 6.24586C20.6614 3.47531 18.6785 1.05022 15.8734 0.207306C15.3621 0.0553055 15.1203 0.0276718 14.1738 0.00694275C13.3861 -0.0137825 12.944 0.0138512 12.6261 0.082943ZM15.5072 2.34913C16.2465 2.60476 16.7302 2.91567 17.3174 3.50295C18.1672 4.35967 18.6163 5.29931 18.6854 6.38404L18.72 6.95749H14.008H9.30287V6.55677C9.30978 4.9884 10.4221 3.30949 11.9698 2.57022C12.716 2.20404 13.1443 2.12113 14.1392 2.14876C14.8578 2.16258 15.0858 2.19713 15.5072 2.34913ZM9.21996 9.3895C9.19924 11.6833 9.19233 11.8422 9.06105 12.0564C8.66724 12.7059 7.77596 12.7266 7.36142 12.0979C7.23705 11.9113 7.23014 11.7317 7.23014 9.42404V6.95749H8.23887H9.24069L9.21996 9.3895ZM20.772 9.42404C20.772 11.7317 20.7651 11.9113 20.6407 12.0979C20.2262 12.7266 19.3349 12.7059 18.9411 12.0564C18.8098 11.8422 18.8029 11.6833 18.7822 9.3895L18.7614 6.95749H19.7632H20.772V9.42404ZM18.4436 17.4386C18.9272 17.6804 19.0585 18.4059 18.7062 18.8826C18.5956 19.0277 17.2967 20.3542 15.8251 21.819C12.9647 24.6655 12.9025 24.7139 12.3567 24.6102C12.1425 24.5688 11.8731 24.3339 10.6985 23.1731C9.92469 22.4062 9.2476 21.6946 9.19233 21.591C9.13705 21.4873 9.0956 21.2731 9.0956 21.1073C9.0956 20.5615 9.51015 20.1539 10.0698 20.1539C10.4774 20.1539 10.6709 20.299 11.7556 21.3906L12.5847 22.2266L14.9683 19.843C17.7182 17.0931 17.7389 17.0793 18.4436 17.4386Z" fill="#2D5499"/>
</svg>
