<svg width="26" height="26" viewBox="0 0 26 26" fill="none" xmlns="http://www.w3.org/2000/svg">
<path d="M1.50312 0.101562C0.903906 0.319923 0.451953 0.726173 0.1625 1.31524L0 1.65039V13V24.3496L0.1625 24.6848C0.457031 25.2891 0.914062 25.6902 1.52852 25.8984C1.82305 26 1.96016 26 9.97852 25.9898L18.1289 25.9746L18.4844 25.802C18.9516 25.5734 19.3527 25.1723 19.5812 24.7051L19.7539 24.3496L19.7691 20.4141L19.7793 16.4836L18.5504 17.6973L17.3164 18.916L16.0012 19.6016C13.0102 21.1605 13 21.1605 12.6191 21.2266C11.7559 21.3738 10.8164 20.932 10.3594 20.1652L10.207 19.9113L7.16016 19.8961C4.21992 19.8809 4.1082 19.8758 3.9457 19.7793C3.71719 19.6422 3.58008 19.4086 3.58008 19.1496C3.58008 18.8703 3.68672 18.6723 3.92031 18.525L4.11328 18.4082L7.11445 18.393L10.1105 18.3777L10.1715 18.2152C10.202 18.1238 10.5473 17.4484 10.9332 16.707L11.6391 15.3613L7.87617 15.3359C4.11836 15.3105 4.11328 15.3105 3.93555 15.1988C3.70195 15.0566 3.58008 14.8383 3.58008 14.5742C3.58008 14.3 3.68672 14.102 3.92031 13.9547L4.11328 13.8379L8.30273 13.8227L12.4922 13.8125L14.0055 12.2992L15.5137 10.791L9.81602 10.7656C4.225 10.7402 4.1082 10.7402 3.9457 10.6387C3.71719 10.5016 3.58008 10.268 3.58008 10.009C3.58008 9.72969 3.68672 9.53164 3.92031 9.38438L4.11328 9.26758L10.5879 9.25235L17.0625 9.24219L18.3727 7.93203L19.6777 6.62696L16.7223 6.60156C13.7922 6.57617 13.7617 6.57617 13.584 6.46445C13.4875 6.40352 13.3605 6.27657 13.3047 6.18516C13.2082 6.02266 13.2031 5.91602 13.1879 3.00625L13.1727 0H7.475C1.98047 0.00507927 1.76719 0.00507927 1.50312 0.101562Z" fill="#2D5499"/>
<path d="M14.7031 2.74219V5.07812H17.0492H19.4004L17.0645 2.74219C15.7797 1.45742 14.7234 0.40625 14.7184 0.40625C14.7082 0.40625 14.7031 1.45742 14.7031 2.74219Z" fill="#2D5499"/>
<path d="M23.3797 5.34727C23.0141 5.45391 22.7043 5.66211 22.2016 6.14453L21.7344 6.59648L23.1918 8.05898L24.6543 9.52148L25.1367 9.03906C25.4922 8.68867 25.6699 8.46523 25.7867 8.22656C25.9391 7.9168 25.9492 7.86602 25.9492 7.33789C25.9492 6.81992 25.9391 6.75391 25.7918 6.44922C25.5937 6.03281 25.2535 5.6875 24.832 5.4793C24.5578 5.34727 24.4359 5.3168 24.0602 5.30156C23.791 5.29141 23.5219 5.30664 23.3797 5.34727Z" fill="#2D5499"/>
<path d="M17.4516 10.8824C15.6895 12.6445 14.2422 14.1172 14.2422 14.1426C14.2422 14.173 14.8871 14.8383 15.6793 15.6305L17.1113 17.0625L20.3613 13.8125L23.6113 10.5625L22.1641 9.11523C21.3668 8.31797 20.7066 7.66797 20.6914 7.66797C20.6762 7.66797 19.2188 9.11523 17.4516 10.8824Z" fill="#2D5499"/>
<path d="M12.3988 17.0524C11.6422 18.4996 11.5 18.8043 11.5 18.9871C11.5 19.4492 11.8098 19.7692 12.2566 19.7742C12.4648 19.7793 12.6883 19.6778 14.2016 18.8906C15.1461 18.4031 15.918 17.9918 15.918 17.9766C15.918 17.9613 15.3289 17.3621 14.6078 16.641L13.2977 15.3309L12.3988 17.0524Z" fill="#2D5499"/>
</svg>
