<svg width="28" height="28" viewBox="0 0 28 28" fill="none" xmlns="http://www.w3.org/2000/svg">
<path d="M22.2223 1.06094C21.3911 1.25235 20.7731 1.60234 20.177 2.22031C19.2911 3.14453 18.8864 4.47344 19.1653 5.55078C19.4223 6.53516 20.5379 8.26875 21.9871 9.92578C22.8129 10.8773 22.8239 10.8828 23.0371 10.8828C23.2012 10.8828 23.2723 10.8336 23.5567 10.5273C24.809 9.19297 26.0504 7.48672 26.5754 6.38203C26.9528 5.6 27.0512 5.11328 26.9746 4.49531C26.8543 3.53281 26.4934 2.8 25.8153 2.13281C25.0442 1.37813 24.2731 1.04453 23.1848 1.00625C22.7637 0.995314 22.4465 1.01172 22.2223 1.06094ZM23.3161 4.39688C23.5457 4.48984 23.7645 4.77969 23.8137 5.04219C23.8465 5.20625 23.8246 5.29375 23.7098 5.48516C23.3817 6.04844 22.6379 6.0375 22.3536 5.46875C22.1457 5.06406 22.2989 4.6375 22.72 4.42969C22.977 4.29844 23.0754 4.29297 23.3161 4.39688Z" fill="#2D5499"/>
<path d="M6.78316 10.2036C5.59644 10.5153 4.65034 11.445 4.28941 12.6646C4.13628 13.1786 4.15816 14.07 4.33862 14.6333C4.49175 15.0981 4.78159 15.5903 5.11519 15.9622C5.42691 16.3013 6.07222 16.7114 6.58081 16.881L7.02925 17.0286L9.89487 17.0505L12.7605 17.0669L12.7222 16.9411C12.5636 16.4325 12.5144 16.1263 12.5417 15.7599L12.5691 15.3661H10.0699C7.28628 15.3661 7.14409 15.3497 6.64644 15.0106C6.30191 14.77 6.04487 14.3981 5.9355 13.9552C5.83159 13.545 5.85894 13.288 6.06128 12.8341C6.23081 12.4403 6.61909 12.0794 7.03472 11.9263C7.33003 11.8114 7.40659 11.8114 14.4175 11.8114C18.3167 11.8114 21.4941 11.7896 21.4832 11.7677C21.4777 11.7403 21.1605 11.363 20.7832 10.92L20.0996 10.1216H13.5917C8.09566 10.1216 7.03472 10.138 6.78316 10.2036Z" fill="#2D5499"/>
<path d="M15.0343 14.733C14.7062 14.8205 14.4656 14.9955 14.3015 15.2799C14.0007 15.794 14.0718 16.3627 14.4874 16.7947C15.3952 17.7299 16.9101 16.8166 16.5437 15.5588C16.3577 14.919 15.696 14.5526 15.0343 14.733Z" fill="#2D5499"/>
<path d="M18.1867 15.7055C18.2195 16.0172 18.1594 16.4547 18.0172 16.9359L17.9844 17.0617H20.8227C23.9234 17.0617 23.9727 17.0672 24.6016 17.3844C25.3398 17.7563 25.8758 18.3688 26.1492 19.1563C26.275 19.5172 26.3078 19.6977 26.3078 20.0914C26.3078 21.0102 26.0398 21.6555 25.3781 22.3117C24.6945 23.0008 24.0437 23.2414 22.8461 23.2414H22.1953L22.2445 23.4219C22.2992 23.6461 22.2992 24.4664 22.2445 24.7398L22.2008 24.9531L23.1195 24.9203C23.8086 24.8984 24.1422 24.8656 24.4484 24.7836C25.8484 24.4008 26.9203 23.5148 27.5383 22.2352C27.9102 21.4641 28.0195 20.9227 27.9922 19.9602C27.9703 19.2438 27.9484 19.1125 27.7844 18.6367C27.2812 17.1383 26.0891 15.9898 24.5469 15.5195C24.1586 15.3992 24.0711 15.3992 21.1508 15.3773L18.1484 15.3609L18.1867 15.7055Z" fill="#2D5499"/>
<path d="M2.13852 21.2515C1.15961 21.514 0.333831 22.3398 0.0767997 23.3242C-0.038044 23.7453 -0.0216378 24.5328 0.109612 24.9429C0.317425 25.6047 0.711175 26.1515 1.24164 26.5015C2.99164 27.6609 5.34321 26.7258 5.76977 24.6914C5.91196 24.0078 5.8518 23.4718 5.54555 22.8156C5.31586 22.307 4.71977 21.6945 4.25493 21.4758C3.59868 21.164 2.77836 21.0765 2.13852 21.2515Z" fill="#2D5499"/>
<path d="M18.9492 22.9627C18.5063 23.1705 18.2656 23.5697 18.2656 24.1002C18.2711 25.0627 19.2117 25.615 20.0758 25.1666C20.9508 24.7127 20.9344 23.4002 20.0539 22.9736C19.7477 22.826 19.2555 22.8205 18.9492 22.9627Z" fill="#2D5499"/>
<path d="M7.40625 24.0898V24.9375H12.0984H16.7906L16.7523 24.8117C16.643 24.4672 16.643 23.7125 16.7523 23.3625L16.7906 23.2422H12.0984H7.40625V24.0898Z" fill="#2D5499"/>
</svg>
