<svg width="28" height="28" viewBox="0 0 28 28" fill="none" xmlns="http://www.w3.org/2000/svg">
<path d="M5.81144 11.299C3.49444 10.3727 2.33594 9.9095 2.33594 9.33317C2.33594 8.75684 3.49444 8.29484 5.81144 7.36734L9.08744 6.05717C11.4044 5.12967 12.5641 4.6665 14.0026 4.6665C15.4411 4.6665 16.6008 5.12967 18.9178 6.05717L22.1938 7.36734C24.5108 8.29367 25.6693 8.75684 25.6693 9.33317C25.6693 9.9095 24.5108 10.3715 22.1938 11.299L18.9178 12.6103C16.6008 13.5367 15.4411 13.9998 14.0026 13.9998C12.5641 13.9998 11.4044 13.5367 9.08744 12.6103L5.81144 11.299Z" fill="#2D5499"/>
<path fill-rule="evenodd" clip-rule="evenodd" d="M2.33594 9.33317C2.33594 9.9095 3.49444 10.3715 5.81144 11.299L9.08744 12.6103C11.4044 13.5367 12.5641 13.9998 14.0026 13.9998C15.4411 13.9998 16.6008 13.5367 18.9178 12.6103L22.1938 11.299C24.5108 10.3727 25.6693 9.9095 25.6693 9.33317C25.6693 8.75684 24.5108 8.29484 22.1938 7.36734L18.9178 6.05717C16.6008 5.12967 15.4411 4.6665 14.0026 4.6665C12.5641 4.6665 11.4044 5.12967 9.08744 6.05717L5.8126 7.36734C3.49444 8.29367 2.33594 8.75684 2.33594 9.33317Z" fill="#2D5499"/>
<path d="M22.1938 15.9657L18.9178 17.2771C16.6008 18.2034 15.4411 18.6666 14.0026 18.6666C12.5641 18.6666 11.4044 18.2034 9.08744 17.2771L5.8126 15.9657C3.49444 15.0394 2.33594 14.5751 2.33594 13.9999C2.33594 13.4807 3.27744 13.0526 5.15927 12.2954L8.82377 13.7607C10.9821 14.6241 12.3366 15.1666 14.0026 15.1666C15.6686 15.1666 17.0243 14.6241 19.1814 13.7607L22.8448 12.2954C24.7289 13.0537 25.6693 13.4807 25.6693 13.9999C25.6693 14.5751 24.5108 15.0382 22.1938 15.9657Z" fill="#2D5499"/>
<path d="M22.1938 20.6322L18.9178 21.9424C16.6008 22.8699 15.4411 23.3331 14.0026 23.3331C12.5641 23.3331 11.4044 22.8699 9.08744 21.9424L5.8126 20.6322C3.49444 19.7047 2.33594 19.2416 2.33594 18.6664C2.33594 18.1472 3.27744 17.7191 5.15927 16.9619L8.82377 18.4272C10.9821 19.2906 12.3366 19.8331 14.0026 19.8331C15.6686 19.8331 17.0243 19.2906 19.1814 18.4272L22.8448 16.9619C24.7278 17.7202 25.6693 18.1472 25.6693 18.6652C25.6693 19.2416 24.5108 19.7047 22.1938 20.6322Z" fill="#2D5499"/>
</svg>
